<?xml version="1.0" encoding="iso-8859-1"?>
<!-- Generator: Adobe Illustrator 19.0.0, SVG Export Plug-In . SVG Version: 6.00 Build 0)  -->
<svg version="1.1" id="Layer_1" xmlns="http://www.w3.org/2000/svg" xmlns:xlink="http://www.w3.org/1999/xlink" x="0px" y="0px"
	 viewBox="0 0 512.001 512.001" style="enable-background:new 0 0 512.001 512.001;" xml:space="preserve">
<path style="fill:#507C5C;" d="M256.686,512.001c-133.123,0-241.427-108.301-241.427-241.422c0-46.509,13.267-91.681,38.367-130.631
	c1.411-2.19,2.99-4.541,4.824-7.178l11.751-16.875c2.642-3.796,6.832-6.224,11.437-6.633c4.618-0.406,9.158,1.245,12.429,4.515
	l49.264,49.264c5.196,5.198,6.069,13.315,2.093,19.497l-7.502,11.665c-14.788,22.995-22.604,49.404-22.604,76.378
	c0,77.946,63.417,141.359,141.365,141.359S398.05,348.523,398.05,270.579c0-22.345-5.244-44.518-15.166-64.122
	c-1.939-3.829-4.077-7.61-6.357-11.234c-4.591-7.305-2.393-16.95,4.91-21.542c7.305-4.591,16.949-2.392,21.542,4.91
	c2.792,4.441,5.41,9.07,7.783,13.759c12.124,23.957,18.533,51.009,18.533,78.231c0,95.175-77.432,172.604-172.61,172.604
	S84.076,365.753,84.076,270.579c0-32.977,9.534-65.233,27.567-93.278l0.689-1.073l-27.158-27.161l-1.08,1.551
	c-1.612,2.318-2.987,4.363-4.198,6.244c-21.848,33.902-33.393,73.222-33.393,113.715c0,115.893,94.287,210.177,210.182,210.177
	s210.182-94.286,210.182-210.177c0-40.193-11.384-79.262-32.919-112.987c-20.368-31.89-48.853-57.653-82.517-74.675l-13.235,49.39
	c-2.234,8.333-10.794,13.284-19.133,11.047c-8.335-2.234-13.281-10.8-11.047-19.133l18.139-67.698
	c1.206-4.504,4.362-8.233,8.603-10.169c4.241-1.934,9.127-1.876,13.316,0.162l14.08,6.846
	c40.132,19.511,74.063,49.739,98.126,87.412c24.751,38.758,37.833,83.642,37.833,129.805
	C498.113,403.7,389.809,512.001,256.686,512.001z"/>
<polygon style="fill:#CFF09E;" points="185.653,228.922 242.806,15.625 29.509,72.777 "/>
<path style="fill:#507C5C;" d="M185.654,244.544c-4.09,0-8.08-1.608-11.048-4.576L18.462,83.824c-3.946-3.946-5.488-9.7-4.043-15.09
	c1.445-5.391,5.655-9.602,11.047-11.047L238.763,0.533c5.394-1.447,11.143,0.098,15.09,4.043c3.946,3.946,5.488,9.7,4.043,15.09
	l-57.153,213.297c-1.445,5.391-5.655,9.602-11.047,11.047C188.36,244.369,187.003,244.544,185.654,244.544z M59.688,80.864
	l117.877,117.877l43.147-161.023L59.688,80.864z"/>
<g>
</g>
<g>
</g>
<g>
</g>
<g>
</g>
<g>
</g>
<g>
</g>
<g>
</g>
<g>
</g>
<g>
</g>
<g>
</g>
<g>
</g>
<g>
</g>
<g>
</g>
<g>
</g>
<g>
</g>
</svg>
