<?xml version="1.0" encoding="utf-8"?>
<!-- Generator: Adobe Illustrator 24.1.2, SVG Export Plug-In . SVG Version: 6.00 Build 0)  -->
<svg version="1.1" id="Layer_1" xmlns="http://www.w3.org/2000/svg" xmlns:xlink="http://www.w3.org/1999/xlink" x="0px" y="0px"
	 viewBox="0 0 512 512" style="enable-background:new 0 0 512 512;" xml:space="preserve">
<style type="text/css">
	.st0{fill:#CFF09E;}
	.st1{fill:#507C5C;}
</style>
<rect x="141.7" y="221.9" class="st0" width="228.6" height="68.2"/>
<g>
	<path class="st1" d="M370.3,304.6H141.7c-8,0-14.5-6.5-14.5-14.5v-68.2c0-8,6.5-14.5,14.5-14.5h228.6c8,0,14.5,6.5,14.5,14.5v68.2
		C384.8,298.1,378.3,304.6,370.3,304.6z M156.2,275.6h199.6v-39.2H156.2V275.6z"/>
</g>
<path class="st1" d="M257.5,512.9c-68.4,0-132.7-26.6-181-75c-5.7-5.7-5.7-14.9,0-20.5c5.7-5.7,14.9-5.7,20.5,0
	c42.9,42.9,99.9,66.5,160.5,66.5s117.6-23.6,160.5-66.5c42.9-42.9,66.5-99.9,66.5-160.5S460.8,139.3,418,96.4
	c-42.9-42.9-99.9-66.5-160.5-66.5S139.8,53.5,97,96.4c-57.3,57.3-79.7,141.5-58.7,219.7c2.1,7.7-2.5,15.7-10.2,17.8
	c-7.7,2.1-15.7-2.5-17.8-10.2C-1.2,281-1.5,235.7,9.6,192.9c11.4-44.2,34.5-84.6,66.9-117c48.4-48.3,112.6-75,181-75
	c68.4,0,132.7,26.6,181,75c48.4,48.4,75,112.6,75,181s-26.6,132.7-75,181C390.1,486.3,325.8,512.9,257.5,512.9z"/>
</svg>
