<?xml version="1.0" encoding="utf-8"?>
<!-- Generator: Adobe Illustrator 24.1.2, SVG Export Plug-In . SVG Version: 6.00 Build 0)  -->
<svg version="1.1" id="Layer_1" xmlns="http://www.w3.org/2000/svg" xmlns:xlink="http://www.w3.org/1999/xlink" x="0px" y="0px"
	 viewBox="0 0 512 512" style="enable-background:new 0 0 512 512;" xml:space="preserve">
<style type="text/css">
	.st0{fill:#CFF09E;}
	.st1{fill:#507C5C;}
</style>
<rect x="141.7" y="221.9" class="st0" width="228.6" height="68.2"/>
<g>
	<path class="st1" d="M370.3,304.6H141.7c-8,0-14.5-6.5-14.5-14.5v-68.2c0-8,6.5-14.5,14.5-14.5h228.6c8,0,14.5,6.5,14.5,14.5v68.2
		C384.8,298.1,378.3,304.6,370.3,304.6z M156.2,275.6h199.6v-39.2H156.2V275.6z"/>
	<path class="st1" d="M497.5,512h-483c-8,0-14.5-6.5-14.5-14.5v-483C0,6.5,6.5,0,14.5,0h483c8,0,14.5,6.5,14.5,14.5v385.2
		c0,8-6.5,14.5-14.5,14.5s-14.5-6.5-14.5-14.5V29H29v454h468.5c8,0,14.5,6.5,14.5,14.5S505.5,512,497.5,512z"/>
	<path class="st1" d="M427.1,441.6H84.9c-8,0-14.5-6.5-14.5-14.5V154.2c0-8,6.5-14.5,14.5-14.5s14.5,6.5,14.5,14.5v258.3h313.1V99.4
		H84.9c-8,0-14.5-6.5-14.5-14.5s6.5-14.5,14.5-14.5h342.1c8,0,14.5,6.5,14.5,14.5v342.1C441.6,435.1,435.1,441.6,427.1,441.6z"/>
</g>
</svg>
