<?xml version="1.0" encoding="utf-8"?>
<!-- Generator: Adobe Illustrator 24.1.2, SVG Export Plug-In . SVG Version: 6.00 Build 0)  -->
<svg version="1.1" id="Layer_1" xmlns="http://www.w3.org/2000/svg" xmlns:xlink="http://www.w3.org/1999/xlink" x="0px" y="0px"
	 viewBox="0 0 512 512" style="enable-background:new 0 0 512 512;" xml:space="preserve">
<style type="text/css">
	.st0{fill:#CFF09E;}
	.st1{fill:#507C5C;}
</style>
<polygon class="st0" points="370.3,221.9 290.1,221.9 290.1,141.7 221.9,141.7 221.9,221.9 141.7,221.9 141.7,290.1 221.9,290.1 
	221.9,370.3 290.1,370.3 290.1,290.1 370.3,290.1 "/>
<g>
	<path class="st1" d="M290.1,384.8h-68.2c-8,0-14.5-6.5-14.5-14.5v-65.7h-65.7c-8,0-14.5-6.5-14.5-14.5v-68.2
		c0-8,6.5-14.5,14.5-14.5h65.7v-65.7c0-8,6.5-14.5,14.5-14.5h68.2c8,0,14.5,6.5,14.5,14.5v65.7h65.7c8,0,14.5,6.5,14.5,14.5v68.2
		c0,8-6.5,14.5-14.5,14.5h-65.7v65.7C304.6,378.3,298.1,384.8,290.1,384.8z M236.4,355.8h39.2v-65.7c0-8,6.5-14.5,14.5-14.5h65.7
		v-39.2h-65.7c-8,0-14.5-6.5-14.5-14.5v-65.7h-39.2v65.7c0,8-6.5,14.5-14.5,14.5h-65.7v39.2h65.7c8,0,14.5,6.5,14.5,14.5
		L236.4,355.8L236.4,355.8z"/>
</g>
<path class="st1" d="M256,509.9c-68.4,0-132.7-26.6-181-75c-5.7-5.7-5.7-14.9,0-20.5c5.7-5.7,14.9-5.7,20.5,0
	c42.9,42.9,99.9,66.5,160.5,66.5s117.6-23.6,160.5-66.5c42.9-42.9,66.5-99.9,66.5-160.5s-23.6-117.6-66.5-160.5
	C373.6,50.5,316.6,26.9,256,26.9S138.4,50.5,95.5,93.4c-57.3,57.3-79.7,141.5-58.7,219.7c2.1,7.7-2.5,15.7-10.2,17.8
	c-7.7,2.1-15.7-2.5-17.8-10.2C-2.7,278-2.9,232.7,8.1,189.9c11.4-44.2,34.5-84.6,66.9-117c48.4-48.3,112.6-75,181-75
	c68.4,0,132.7,26.6,181,75c48.4,48.4,75,112.6,75,181s-26.6,132.7-75,181C388.7,483.3,324.4,509.9,256,509.9z"/>
</svg>
