<?xml version="1.0" encoding="utf-8"?>
<!-- Generator: Adobe Illustrator 24.1.2, SVG Export Plug-In . SVG Version: 6.00 Build 0)  -->
<svg version="1.1" id="Layer_1" xmlns="http://www.w3.org/2000/svg" xmlns:xlink="http://www.w3.org/1999/xlink" x="0px" y="0px"
	 viewBox="0 0 512 512" style="enable-background:new 0 0 512 512;" xml:space="preserve">
<style type="text/css">
	.st0{fill:#CFF09E;}
	.st1{fill:#507C5C;}
</style>
<polygon class="st0" points="370.3,221.9 290.1,221.9 290.1,141.7 221.9,141.7 221.9,221.9 141.7,221.9 141.7,290.1 221.9,290.1 
	221.9,370.3 290.1,370.3 290.1,290.1 370.3,290.1 "/>
<g>
	<path class="st1" d="M290.1,384.8h-68.2c-8,0-14.5-6.5-14.5-14.5v-65.7h-65.7c-8,0-14.5-6.5-14.5-14.5v-68.2
		c0-8,6.5-14.5,14.5-14.5h65.7v-65.7c0-8,6.5-14.5,14.5-14.5h68.2c8,0,14.5,6.5,14.5,14.5v65.7h65.7c8,0,14.5,6.5,14.5,14.5v68.2
		c0,8-6.5,14.5-14.5,14.5h-65.7v65.7C304.6,378.3,298.1,384.8,290.1,384.8z M236.4,355.8h39.2v-65.7c0-8,6.5-14.5,14.5-14.5h65.7
		v-39.2h-65.7c-8,0-14.5-6.5-14.5-14.5v-65.7h-39.2v65.7c0,8-6.5,14.5-14.5,14.5h-65.7v39.2h65.7c8,0,14.5,6.5,14.5,14.5
		L236.4,355.8L236.4,355.8z"/>
	<path class="st1" d="M497.5,512h-483c-8,0-14.5-6.5-14.5-14.5v-483C0,6.5,6.5,0,14.5,0h483c8,0,14.5,6.5,14.5,14.5v385.2
		c0,8-6.5,14.5-14.5,14.5s-14.5-6.5-14.5-14.5V29H29v454h468.5c8,0,14.5,6.5,14.5,14.5S505.5,512,497.5,512z"/>
	<path class="st1" d="M427.1,441.6H84.9c-8,0-14.5-6.5-14.5-14.5V154.2c0-8,6.5-14.5,14.5-14.5s14.5,6.5,14.5,14.5v258.3h313.1V99.4
		H84.9c-8,0-14.5-6.5-14.5-14.5s6.5-14.5,14.5-14.5h342.1c8,0,14.5,6.5,14.5,14.5v342.1C441.6,435.1,435.1,441.6,427.1,441.6z"/>
</g>
</svg>
