<?xml version="1.0" encoding="iso-8859-1"?>
<!-- Generator: Adobe Illustrator 19.0.0, SVG Export Plug-In . SVG Version: 6.00 Build 0)  -->
<svg version="1.1" id="Layer_1" xmlns="http://www.w3.org/2000/svg" xmlns:xlink="http://www.w3.org/1999/xlink" x="0px" y="0px"
	 viewBox="0 0 512 512" style="enable-background:new 0 0 512 512;" xml:space="preserve">
<path style="fill:#507C5C;" d="M292.744,470.495H173.127c-4.374,0-8.509-1.998-11.228-5.425L3.104,264.908
	c-4.139-5.217-4.139-12.598,0-17.815L161.9,46.93c2.719-3.427,6.854-5.425,11.228-5.425h119.617c5.498,0,10.513,3.146,12.905,8.098
	c2.392,4.952,1.74,10.835-1.677,15.142L202.651,192.462c-4.92,6.202-13.935,7.239-20.135,2.32
	c-6.202-4.919-7.241-13.934-2.32-20.135l82.886-104.478h-83.028L32.627,256l147.425,185.831h83.028L122.721,264.908
	c-4.92-6.202-3.881-15.217,2.32-20.135c6.199-4.92,15.215-3.881,20.135,2.32l158.794,200.163c3.418,4.307,4.069,10.19,1.677,15.142
	C303.256,467.348,298.243,470.495,292.744,470.495z"/>
<polygon style="fill:#CFF09E;" points="378.049,55.837 219.255,256 378.049,456.163 497.668,456.163 338.872,256 497.668,55.837 "/>
<path style="fill:#507C5C;" d="M497.666,470.495H378.049c-4.374,0-8.509-1.998-11.228-5.425L208.027,264.908
	c-4.139-5.217-4.139-12.598,0-17.815L366.823,46.93c2.719-3.427,6.854-5.425,11.228-5.425h119.617
	c5.499,0,10.513,3.146,12.905,8.098c2.392,4.952,1.74,10.835-1.677,15.142L357.167,256l151.729,191.255
	c3.418,4.307,4.069,10.19,1.677,15.142C508.179,467.348,503.166,470.495,497.666,470.495z M384.975,441.831h83.028L327.644,264.908
	c-4.139-5.217-4.139-12.598,0-17.815L468.003,70.169h-83.028L237.55,256L384.975,441.831z"/>
<g>
</g>
<g>
</g>
<g>
</g>
<g>
</g>
<g>
</g>
<g>
</g>
<g>
</g>
<g>
</g>
<g>
</g>
<g>
</g>
<g>
</g>
<g>
</g>
<g>
</g>
<g>
</g>
<g>
</g>
</svg>
