<?xml version="1.0" encoding="utf-8"?>
<!-- Generator: Adobe Illustrator 24.1.2, SVG Export Plug-In . SVG Version: 6.00 Build 0)  -->
<svg version="1.1" id="Layer_1" xmlns="http://www.w3.org/2000/svg" xmlns:xlink="http://www.w3.org/1999/xlink" x="0px" y="0px"
	 viewBox="0 0 512 512" style="enable-background:new 0 0 512 512;" xml:space="preserve">
<style type="text/css">
	.st0{fill:#CFF09E;}
	.st1{fill:#507C5C;}
</style>
<rect x="174.4" y="174.4" class="st0" width="163.2" height="163.2"/>
<g>
	<path class="st1" d="M337.6,352.1H174.4c-8,0-14.5-6.5-14.5-14.5V174.4c0-8,6.5-14.5,14.5-14.5h163.2c8,0,14.5,6.5,14.5,14.5v163.2
		C352.1,345.6,345.6,352.1,337.6,352.1z M188.9,323.1h134.2V188.9H188.9V323.1z"/>
	<path class="st1" d="M256,512c-68.4,0-132.7-26.6-181-75c-5.7-5.7-5.7-14.9,0-20.5c5.7-5.7,14.9-5.7,20.5,0
		C138.4,459.4,195.4,483,256,483s117.6-23.6,160.5-66.5C459.4,373.6,483,316.6,483,256s-23.6-117.6-66.5-160.5
		C373.6,52.6,316.6,29,256,29S138.4,52.6,95.5,95.5C38.3,152.8,15.8,237,36.9,315.2c2.1,7.7-2.5,15.7-10.2,17.8
		c-7.7,2.1-15.7-2.5-17.8-10.2C-2.7,280.1-2.9,234.9,8.1,192C19.4,147.9,42.6,107.4,75,75C123.3,26.6,187.6,0,256,0
		c68.4,0,132.7,26.6,181,75c48.4,48.4,75,112.6,75,181s-26.6,132.7-75,181C388.7,485.4,324.4,512,256,512z"/>
	<path class="st1" d="M256,452c-108.1,0-196-87.9-196-196S147.9,60,256,60c69.9,0,135.1,37.7,170,98.4c4,6.9,1.6,15.8-5.3,19.8
		c-7,4-15.8,1.6-19.8-5.3C371.1,121.1,315.6,89,256,89c-92.1,0-167,74.9-167,167s74.9,167,167,167s167-74.9,167-167
		c0-8,6.5-14.5,14.5-14.5S452,248,452,256C452,364.1,364.1,452,256,452z"/>
</g>
</svg>
